<?xml version="1.0" encoding="iso-8859-1"?>
<svg version="1.1" xmlns="http://www.w3.org/2000/svg" xmlns:xlink="http://www.w3.org/1999/xlink" x="0px" y="0px"
	 viewBox="0 0 496 496" style="enable-background:new 0 0 496 496;" xml:space="preserve">
<g stroke="white" fill="white">
	<path d="M136,0C78.656,0,32,46.656,32,104c0,36.72,19.184,68.984,48,87.496v234.8l36.976,59.168
		C121.104,492.064,128.216,496,136,496s14.896-3.936,19.024-10.536L192,426.296v-30.832l-37.056-22.232
		c-1.84-1.104-2.944-3.064-2.944-5.232c0-2.168,1.104-4.128,2.944-5.232L192,340.528v-49.064l-37.024-22.208
		C153.144,268.16,152,266.144,152,264c0-2.144,1.144-4.16,2.976-5.256L192,236.528v-44.896c29.4-18.832,48-51.688,48-87.632
		C240,46.656,193.344,0,136,0z M165.336,187l5.336,15.08c1.816-0.64,3.568-1.392,5.328-2.12v27.512l-29.256,17.552
		C140.12,249,136,256.272,136,264c0,7.728,4.12,15,10.744,18.976L176,300.528v30.936l-29.296,17.576
		C140.104,353.016,136,360.272,136,368c0,7.728,4.104,14.984,10.704,18.952L176,404.528v17.168l-34.544,55.272
		c-2.36,3.784-8.544,3.784-10.904,0L96,421.704V199.976c12.32,5.152,25.832,8.024,40,8.024c5.816,0,11.648-0.488,17.328-1.44
		l-2.656-15.784C145.864,191.592,140.928,192,136,192c-48.52,0-88-39.48-88-88s39.48-88,88-88s88,39.48,88,88
		C224,141.24,200.424,174.592,165.336,187z"/>
	<path d="M136,40c-35.288,0-64,28.712-64,64c0,35.288,28.712,64,64,64s64-28.712,64-64C200,68.712,171.288,40,136,40z M136,152
		c-26.472,0-48-21.528-48-48s21.528-48,48-48s48,21.528,48,48S162.472,152,136,152z"/>
	<path d="M424,104c0-35.288-28.712-64-64-64c-35.288,0-64,28.712-64,64c0,35.288,28.712,64,64,64C395.288,168,424,139.288,424,104
		z M360,152c-26.472,0-48-21.528-48-48s21.528-48,48-48s48,21.528,48,48S386.472,152,360,152z"/>
	<path d="M400,199.904C438.504,183.84,464,146,464,104C464,46.656,417.344,0,360,0S256,46.656,256,104
		c0,42,25.496,79.84,64,95.904V496h144v-56h-64v-32h64v-56h-64V199.904z M448,368v24h-64v64h64v24H336V188.768l-5.328-1.88
		C295.576,174.456,272,141.152,272,104c0-48.52,39.48-88,88-88c48.52,0,88,39.48,88,88c0,37.152-23.576,70.456-58.672,82.88
		L384,188.768V368H448z"/>
</g>
</svg>
